<?xml version="1.0" encoding="UTF-8"?>
<svg width="18px" height="13px" viewBox="0 0 18 13" version="1.1" xmlns="http://www.w3.org/2000/svg" xmlns:xlink="http://www.w3.org/1999/xlink">
    <!-- Generator: sketchtool 50.2 (55047) - http://www.bohemiancoding.com/sketch -->
    <title>94B4D480-9D61-4498-A209-0E07B74E5A89</title>
    <desc>Created with sketchtool.</desc>
    <defs></defs>
    <g id="admin" stroke="none" stroke-width="1" fill="none" fill-rule="evenodd" stroke-linecap="round" stroke-linejoin="round">
        <g id="edit" transform="translate(-1361.000000, -658.000000)" stroke="#FFFFFF" stroke-width="1.25">
            <g id="section" transform="translate(382.000000, 514.000000)">
                <g id="input-format-B" transform="translate(972.000000, 102.000000)">
                    <g id="preview" transform="translate(0.000000, 32.000000)">
                        <g id="icon-preview" transform="translate(4.000000, 4.000000)">
                            <path d="M11.7424516,10.6666667 C10.6023226,10.6666667 9.67793548,11.6048095 9.67793548,12.7619048 C9.67793548,13.919 10.6023226,14.8571429 11.7424516,14.8571429 C12.8825806,14.8571429 13.8069677,13.919 13.8069677,12.7619048 C13.8069677,11.6048095 12.8825806,10.6666667 11.7424516,10.6666667 Z M11.7424516,18 C8.09393548,18 5.03535484,14.2594762 4.02167742,12.8284286 C3.99277419,12.7875714 3.99277419,12.7362381 4.02167742,12.695381 C5.03535484,11.2643333 8.09393548,7.52380952 11.7424516,7.52380952 C15.3883871,7.52380952 18.4449032,11.2585714 19.4611613,12.6922381 C19.4910968,12.7346667 19.4910968,12.7891429 19.4611613,12.8315714 C18.4449032,14.2652381 15.3883871,18 11.7424516,18 Z" id="shape"></path>
                        </g>
                    </g>
                </g>
            </g>
        </g>
    </g>
</svg>