<?xml version="1.0" encoding="UTF-8"?>
<svg width="16px" height="16px" viewBox="0 0 16 16" version="1.1" xmlns="http://www.w3.org/2000/svg" xmlns:xlink="http://www.w3.org/1999/xlink">
    <!-- Generator: sketchtool 50.2 (55047) - http://www.bohemiancoding.com/sketch -->
    <title>AC4082D7-DEC3-47C1-AFA4-65F8DD50F6AE</title>
    <desc>Created with sketchtool.</desc>
    <defs></defs>
    <g id="admin" stroke="none" stroke-width="1" fill="none" fill-rule="evenodd" stroke-linecap="round" stroke-linejoin="round">
        <g id="blank" transform="translate(-1362.000000, -160.000000)" stroke="#C12335" stroke-width="1.25">
            <g id="section" transform="translate(382.000000, 144.000000)">
                <g id="delete" transform="translate(972.000000, 8.000000)">
                    <g id="icon-delete-red" transform="translate(4.000000, 4.000000)">
                        <path d="M10,11 L10.5,16" id="Path"></path>
                        <path d="M14,11 L13.5,16" id="Path"></path>
                        <path d="M7,8 L7.83464286,17.1810715 C7.92829362,18.2112298 8.79202287,19 9.82642928,19 L14.1735707,19 C15.2079771,19 16.0717064,18.2112298 16.1653571,17.1810715 L17,8 M5,8 L19,8 M10,8 L10,7 C10,5.8954305 10.8954305,5 12,5 L12,5 C13.1045695,5 14,5.8954305 14,7 L14,8" id="icon-delete"></path>
                    </g>
                </g>
            </g>
        </g>
    </g>
</svg>