<?xml version="1.0" encoding="UTF-8"?>
<svg width="18px" height="16px" viewBox="0 0 18 16" version="1.1" xmlns="http://www.w3.org/2000/svg" xmlns:xlink="http://www.w3.org/1999/xlink">
    <!-- Generator: sketchtool 50.2 (55047) - http://www.bohemiancoding.com/sketch -->
    <title>125A34E9-E1E2-4B25-B2C1-3723685A5EDF</title>
    <desc>Created with sketchtool.</desc>
    <defs></defs>
    <g id="admin" stroke="none" stroke-width="1" fill="none" fill-rule="evenodd" stroke-linecap="round" stroke-linejoin="round">
        <g id="edit" transform="translate(-37.000000, -286.000000)" stroke="#66CC00" stroke-width="1.25">
            <g id="menu" transform="translate(0.000000, 60.000000)">
                <g id="tree" transform="translate(18.000000, 22.000000)">
                    <g id="folder-L1" transform="translate(0.000000, 192.000000)">
                        <g id="icon-folder" transform="translate(16.000000, 8.000000)">
                            <path d="M10.1935484,7.2869011 L18.9677419,7.25527147 C19.2526452,7.25527147 19.483871,7.4886048 19.483871,7.77534554 L19.483871,15.5785307 C19.483871,17.3020863 18.0970323,18.7000122 16.3870968,18.7000122 L7.09677419,18.7000122 C5.38632258,18.7000122 4,17.3020863 4,15.5785307 L4,7.25527147 L4,7.30141961 L4,5.8646048 C4,5.50734554 4.21316129,5.21853073 4.47587097,5.21853073 L8.59354839,5.21853073 C8.79587097,5.21853073 8.97703226,5.34816036 9.05083871,5.54623443 L10.1935484,7.2869011 Z" id="Path"></path>
                        </g>
                    </g>
                </g>
            </g>
        </g>
    </g>
</svg>