<?xml version="1.0" encoding="UTF-8"?>
<svg width="15px" height="15px" viewBox="0 0 15 15" version="1.1" xmlns="http://www.w3.org/2000/svg" xmlns:xlink="http://www.w3.org/1999/xlink">
    <!-- Generator: sketchtool 50.2 (55047) - http://www.bohemiancoding.com/sketch -->
    <title>A743A629-F198-4273-BD88-8E066A9D3060</title>
    <desc>Created with sketchtool.</desc>
    <defs></defs>
    <g id="admin" stroke="none" stroke-width="1" fill="none" fill-rule="evenodd" stroke-linecap="round" stroke-linejoin="round">
        <g id="edit" transform="translate(-573.000000, -225.000000)" stroke="#9DA5AA" stroke-width="1.25">
            <g id="WYSIWYG" transform="translate(439.000000, 216.000000)">
                <g id="icon-bullet" transform="translate(129.000000, 4.000000)">
                    <path d="M6.65,17.7 C6.2912,17.7 6,17.99055 6,18.35 C6,18.70945 6.2912,19 6.65,19 C7.0088,19 7.3,18.70945 7.3,18.35 C7.3,17.99055 7.0088,17.7 6.65,17.7 Z M6.65,13.8 C6.2912,13.8 6,14.09055 6,14.45 C6,14.80945 6.2912,15.1 6.65,15.1 C7.0088,15.1 7.3,14.80945 7.3,14.45 C7.3,14.09055 7.0088,13.8 6.65,13.8 Z M6.65,9.9 C6.2912,9.9 6,10.19055 6,10.55 C6,10.90945 6.2912,11.2 6.65,11.2 C7.0088,11.2 7.3,10.90945 7.3,10.55 C7.3,10.19055 7.0088,9.9 6.65,9.9 Z M6.65,6 C6.2912,6 6,6.29055 6,6.65 C6,7.00945 6.2912,7.3 6.65,7.3 C7.0088,7.3 7.3,7.00945 7.3,6.65 C7.3,6.29055 7.0088,6 6.65,6 Z M9.25,18.35 L19,18.35 L9.25,18.35 Z M9.25,14.45 L19,14.45 L9.25,14.45 Z M9.25,10.55 L19,10.55 L9.25,10.55 Z M9.25,6.65 L19,6.65 L9.25,6.65 Z" id="bullet"></path>
                </g>
            </g>
        </g>
    </g>
</svg>