<?xml version="1.0" encoding="UTF-8"?>
<svg width="28px" height="28px" viewBox="0 0 28 28" version="1.1" xmlns="http://www.w3.org/2000/svg" xmlns:xlink="http://www.w3.org/1999/xlink">
    <!-- Generator: sketchtool 49.3 (51167) - http://www.bohemiancoding.com/sketch -->
    <title>5734847C-75CB-438D-A6BD-1F8F08CDA68A</title>
    <desc>Created with sketchtool.</desc>
    <defs></defs>
    <g id="user" stroke="none" stroke-width="1" fill="none" fill-rule="evenodd">
        <g id="chat-02" transform="translate(-22.000000, -762.000000)">
            <g id="chat-script" transform="translate(22.000000, 570.000000)">
                <g id="icon-chatbot" transform="translate(0.000000, 192.000000)">
                    <circle id="icon-bg" fill="#66CC00" cx="14" cy="14" r="14"></circle>
                    <path d="M8.52133333,9.37468354 L19.9453333,9.37468354 C20.3989432,9.37468354 20.7666667,9.742407 20.7666667,10.1960169 L20.7666667,18.0638987 C20.7666667,18.5175086 20.3989432,18.8852321 19.9453333,18.8852321 L7.7,18.8852321 L7.7,10.1960169 C7.7,9.742407 8.06772346,9.37468354 8.52133333,9.37468354 Z" id="Rectangle-5" fill="#FFFFFF"></path>
                    <polygon id="Rectangle-5" fill="#FFFFFF" points="7.7 18.678481 12.1916667 18.678481 7.7 22.4"></polygon>
                    <rect id="Rectangle-8" fill="#FFFFFF" x="21.3791667" y="11.235443" width="1.02083333" height="2.5673824" rx="0.510416667"></rect>
                    <rect id="Rectangle-8" fill="#FFFFFF" x="6.06666667" y="11.235443" width="1.02083333" height="2.5673824" rx="0.510416667"></rect>
                    <rect id="Rectangle-8" fill="#248700" x="16.275" y="11.8556962" width="1.42916667" height="3.10126582" rx="0.714583333"></rect>
                    <rect id="Rectangle-8" fill="#248700" x="10.9666667" y="11.8556962" width="1.42916667" height="3.10126582" rx="0.714583333"></rect>
                    <path d="M14.2333333,7.10042194 L14.2333333,9.66780435" id="Path-2" stroke="#FFFFFF" stroke-width="0.5"></path>
                    <ellipse id="Oval-3" fill="#FFFFFF" cx="14.2333333" cy="6.89367089" rx="1" ry="1"></ellipse>
                </g>
            </g>
        </g>
    </g>
</svg>