<?xml version="1.0" encoding="UTF-8"?>
<svg width="134px" height="26px" viewBox="0 0 134 26" version="1.1" xmlns="http://www.w3.org/2000/svg" xmlns:xlink="http://www.w3.org/1999/xlink">
    <!-- Generator: sketchtool 49.3 (51167) - http://www.bohemiancoding.com/sketch -->
    <title>1966AEBD-641A-44C5-8E8E-44838BEEE98E</title>
    <desc>Created with sketchtool.</desc>
    <defs></defs>
    <g id="user" stroke="none" stroke-width="1" fill="none" fill-rule="evenodd">
        <g id="chat-01" transform="translate(-82.000000, -16.000000)">
            <g id="head">
                <g id="logo" transform="translate(82.000000, 16.000000)">
                    <path d="M54.2451338,0.443642105 L31.0269408,5.04701053 L31.0269408,6.65764211 L31.1038996,6.63848421 C46.4393134,2.92732632 54.2451338,0.6968 54.30835,0.679010526 C54.3935544,0.657115789 54.4251624,0.590063158 54.4127941,0.532589474 C54.4004257,0.472378947 54.3385838,0.424484211 54.2451338,0.443642105" id="t-line" fill="#4B286D"></path>
                    <path d="M35.3676916,0.0026 C34.2407949,0.0669157895 32.1491649,1.73091579 31.0030286,2.71891579 C26.4349745,6.65312632 23.0391677,10.2726 20.569615,14.0590211 C15.4216215,16.8054421 8.85813582,19.6284947 2.34137515,21.8330211 L2.18470903,21.8863895 L0.93000585,25.2499684 L1.64599748,24.9735474 C5.79215247,23.4012316 12.7115725,20.4454421 18.9823399,17.1626 C18.629154,18.1013368 18.451874,18.9607053 18.451874,19.7489158 C18.451874,20.3359684 18.550821,20.8792316 18.7473407,21.3787053 C19.1431288,22.3653368 19.9209623,23.1152316 20.9970112,23.5408105 C22.6021517,24.1798632 24.7941031,24.1921789 27.2911411,23.4381789 C33.6773466,21.5100737 41.2467937,15.5971263 42.8972849,14.4202842 L42.9577525,14.3751263 C43.022343,14.3299684 43.02784,14.2588105 43.0003547,14.2122842 C42.9632496,14.1589158 42.8890393,14.1452316 42.8271974,14.1794421 L42.7447416,14.2300737 C40.9746893,15.2851263 32.378667,20.3674421 26.7909089,21.8617579 C23.9448078,22.6212316 21.776219,22.2052316 20.9585318,21.0653368 C20.6740591,20.6767053 20.5366327,20.1840737 20.5366327,19.6079684 C20.5366327,18.4886 21.0670987,17.0599684 22.0881769,15.4739684 C23.0281736,14.9389158 23.9035799,14.4189158 24.6951561,13.9262842 C30.146862,10.8733368 36.4286235,4.94123158 36.696605,1.32312632 C36.6979793,1.29849474 36.6979793,1.26975789 36.6979793,1.24102105 C36.6979793,0.931757895 36.5605529,0.606073684 36.3228052,0.369336842 C36.0699405,0.110705263 35.7318716,-0.0206631579 35.3676916,0.0026 M34.7616411,1.72954737 C35.1189497,1.49965263 35.2233938,1.64333684 35.1175755,1.90333684 C34.9444182,2.3166 34.1597134,4.82081053 28.3149679,9.59796842 C26.7909089,10.8418632 25.7066145,11.5424947 23.5105403,12.8342842 C27.1056154,7.81628421 32.3566788,3.28407368 34.7616411,1.72954737" id="t" fill="#66CC00"></path>
                    <polygon id="t-line" fill="#4B286D" points="30.9523182 5.06206316 6.52752122 10.2894316 5.58202747 12.8182737 31.029277 6.65764211 31.0677564 6.64806316 31.0677564 5.03606316"></polygon>
                    <path d="M64.6263253,7.03464211 L64.6263253,4.27316842 L52.3747603,4.27316842 L52.3747603,7.03464211 L56.5126697,7.03464211 L56.5126697,18.2625368 L60.4815446,18.2625368 L60.4815446,7.03464211 L64.6263253,7.03464211 Z M74.2338061,6.99358947 L74.2338061,9.60864211 L79.0519763,9.60864211 L79.0519763,12.3235895 L74.2338061,12.3235895 L74.2338061,15.4244316 L80.0263296,15.4244316 L80.0263296,18.2611684 L70.289668,18.2611684 L70.289668,4.27453684 L80.0263296,4.27453684 L80.0263296,6.99358947 L74.2338061,6.99358947 Z M97.2060059,15.5010632 L91.1207642,15.5010632 L91.1207642,4.27316842 L87.1285268,4.27316842 L87.1285268,18.2611684 L97.2060059,18.2611684 L97.2060059,15.5010632 Z M110.824964,4.27316842 L110.824964,13.1596947 C110.824964,13.8562211 110.824964,14.0505368 110.780987,14.3187474 C110.655929,15.1658 109.827248,15.6584316 108.512077,15.6748526 C107.539098,15.6611684 106.827229,15.3738 106.493283,14.8661158 C106.326997,14.6047474 106.24729,14.1367474 106.24729,13.3909579 L106.24729,4.27316842 L102.106632,4.27316842 L102.106632,13.9136947 C102.106632,15.2506421 102.285286,15.8500105 102.889962,16.6135895 C103.890427,17.8615895 105.837759,18.5156947 108.521697,18.5156947 L108.608276,18.5156947 L108.667369,18.5156947 C112.26107,18.5156947 114.112204,17.1158 114.650915,15.8144316 C114.918897,15.1822211 114.939511,14.8798 114.939511,13.6044316 L114.939511,4.27316842 L110.824964,4.27316842 Z M129.355542,9.60453684 C126.661984,8.99695789 125.719239,8.93127368 125.719239,7.86390526 C125.719239,6.87316842 127.052275,6.56390526 127.821863,6.56390526 C129.065572,6.56390526 130.530538,6.85264211 132.022989,7.61622105 L133.108657,5.04358947 C131.580475,4.21022105 129.615278,3.86401053 127.722916,3.86401053 C124.006906,3.86401053 121.515365,5.36516842 121.412295,8.29085263 C121.303728,10.9579053 123.484685,11.9568526 125.486988,12.3687474 C127.416455,12.7655895 129.374781,13.1063263 129.414635,14.2475895 C129.453115,15.3012737 128.500749,15.7514842 126.70596,15.7514842 C125.043101,15.7514842 123.499802,15.2205368 121.918024,14.5623263 L120.997267,17.3580105 C122.811296,18.1284316 124.65281,18.5512737 126.554791,18.5512737 C129.193379,18.5512737 131.117348,18.1421158 132.536963,16.8174842 C133.519562,15.9061158 133.84114,14.8072737 133.84114,13.7604316 C133.84114,11.5490632 132.45863,10.3024316 129.355542,9.60453684 Z" id="text" fill="#4B286D"></path>
                </g>
            </g>
        </g>
    </g>
</svg>