<?xml version="1.0" encoding="UTF-8"?>
<svg width="24px" height="24px" viewBox="0 0 24 24" version="1.1" xmlns="http://www.w3.org/2000/svg" xmlns:xlink="http://www.w3.org/1999/xlink">
    <!-- Generator: sketchtool 50.2 (55047) - http://www.bohemiancoding.com/sketch -->
    <title>C53B8B0D-2295-4BD0-B7B5-D1400F3ACA5C</title>
    <desc>Created with sketchtool.</desc>
    <defs></defs>
    <g id="admin" stroke="none" stroke-width="1" fill="none" fill-rule="evenodd">
        <g id="blank" transform="translate(-382.000000, -18.000000)">
            <g id="header">
                <g id="bradcrumbs" transform="translate(382.000000, 18.000000)">
                    <g id="icon-bradcrumb">
                        <rect id="Path" fill="#4B286D" x="0" y="0" width="24" height="24" rx="4"></rect>
                        <path d="M8.73912287,8.39392911 L8.73912287,16.1817873 C8.73912287,17.118936 9.51781514,17.8787519 10.4782457,17.8787519 L13.0869301,17.8787519 M8.73912287,9.24241139 L8.73912287,10.0908937 C8.73912287,11.0280423 9.51781514,11.7878582 10.4782457,11.7878582 L13.0869301,11.7878582 M13.0869301,17.8787519 C13.0869301,18.8159006 13.8656223,19.5757164 14.8260529,19.5757164 C15.7864835,19.5757164 16.5651758,18.8159006 16.5651758,17.8787519 C16.5651758,16.941179 15.7864835,16.1817873 14.8260529,16.1817873 C13.8656223,16.1817873 13.0869301,16.941179 13.0869301,17.8787519 Z M13.0869301,11.7878582 C13.0869301,12.7250069 13.8656223,13.4848228 14.8260529,13.4848228 C15.7864835,13.4848228 16.5651758,12.7250069 16.5651758,11.7878582 C16.5651758,10.8502853 15.7864835,10.0908937 14.8260529,10.0908937 C13.8656223,10.0908937 13.0869301,10.8502853 13.0869301,11.7878582 Z M8.73912287,5 C9.69955348,5 10.4782457,5.75939164 10.4782457,6.69696455 C10.4782457,7.63411323 9.69955348,8.39392911 8.73912287,8.39392911 C7.77869227,8.39392911 7,7.63411323 7,6.69696455 C7,5.75939164 7.77869227,5 8.73912287,5 Z" id="bradcrumb-shape" stroke="#FFFFFF" stroke-width="1.25" stroke-linecap="round" stroke-linejoin="round"></path>
                    </g>
                </g>
            </g>
        </g>
    </g>
</svg>