<?xml version="1.0" encoding="UTF-8"?>
<svg width="20px" height="14px" viewBox="0 0 20 14" version="1.1" xmlns="http://www.w3.org/2000/svg" xmlns:xlink="http://www.w3.org/1999/xlink">
    <!-- Generator: sketchtool 49.3 (51167) - http://www.bohemiancoding.com/sketch -->
    <title>9F075571-8908-4202-82A0-9B0003833484</title>
    <desc>Created with sketchtool.</desc>
    <defs></defs>
    <g id="user" stroke="none" stroke-width="1" fill="none" fill-rule="evenodd">
        <g id="chat-01" transform="translate(-20.000000, -23.000000)" fill="#FFFFFF">
            <g id="head">
                <path d="M39.0081969,37 L20.9918031,37 C20.4553056,37 20,36.5522847 20,36 C20,35.4438648 20.4440454,35 20.9918031,35 L39.0081969,35 C39.5446944,35 40,35.4477153 40,36 C40,36.5561352 39.5559546,37 39.0081969,37 Z M39.0081969,25 L20.9918031,25 C20.4553056,25 20,24.5522847 20,24 C20,23.4438648 20.4440454,23 20.9918031,23 L39.0081969,23 C39.5446944,23 40,23.4477153 40,24 C40,24.5561352 39.5559546,25 39.0081969,25 Z M39.0081969,31 L20.9918031,31 C20.4553056,31 20,30.5522847 20,30 C20,29.4438648 20.4440454,29 20.9918031,29 L39.0081969,29 C39.5446944,29 40,29.4477153 40,30 C40,30.5561352 39.5559546,31 39.0081969,31 Z" id="icon-menu"></path>
            </g>
        </g>
    </g>
</svg>