<?xml version="1.0" encoding="UTF-8"?>
<svg width="16px" height="18px" viewBox="0 0 16 18" version="1.1" xmlns="http://www.w3.org/2000/svg" xmlns:xlink="http://www.w3.org/1999/xlink">
    <!-- Generator: sketchtool 50.2 (55047) - http://www.bohemiancoding.com/sketch -->
    <title>B5D8164B-2710-42D0-85BD-3EBCE1B52EB5</title>
    <desc>Created with sketchtool.</desc>
    <defs></defs>
    <g id="admin" stroke="none" stroke-width="1" fill="none" fill-rule="evenodd" stroke-linecap="round" stroke-linejoin="round">
        <g id="edit" transform="translate(-70.000000, -573.000000)" stroke="#66CC00" stroke-width="1.25">
            <g id="menu" transform="translate(0.000000, 60.000000)">
                <g id="tree" transform="translate(18.000000, 22.000000)">
                    <g id="file-L1" transform="translate(32.000000, 480.000000)">
                        <g id="icon-file" transform="translate(16.000000, 8.000000)">
                            <path d="M18.9814815,8.53185876 L14.7467407,4.31611683 L6.01851852,4.31611683 C5.7322963,4.31611683 5.5,4.54734263 5.5,4.83224586 L5.5,16.7032136 C5.5,18.4136652 6.89274074,19.7999878 8.61111111,19.7999878 L15.8703704,19.7999878 C17.5882222,19.7999878 18.9814815,18.4136652 18.9814815,16.7032136 L18.9814815,8.53185876 Z" id="Path"></path>
                            <path d="M14.7467407,4.31611683 L14.7467407,8.01572973 C14.7467407,8.30063295 14.979037,8.53185876 15.2652593,8.53185876 L18.9814815,8.53185876 L14.7467407,4.31611683 Z" id="Path"></path>
                            <path d="M9.04303704,16.1870846 L15.2652593,16.1870846 L9.04303704,16.1870846 Z" id="Path"></path>
                            <path d="M9.04303704,13.0903104 L15.2652593,13.0903104 L9.04303704,13.0903104 Z" id="Path"></path>
                            <path d="M9.04303704,9.99353618 L12.1541481,9.99353618 L9.04303704,9.99353618 Z" id="Path"></path>
                        </g>
                    </g>
                </g>
            </g>
        </g>
    </g>
</svg>